<?xml version="1.0" standalone="no"?>
<!DOCTYPE svg PUBLIC "-//W3C//DTD SVG 20010904//EN"
 "http://www.w3.org/TR/2001/REC-SVG-20010904/DTD/svg10.dtd">
<svg version="1.0" xmlns="http://www.w3.org/2000/svg"
 width="24px" height="24px" viewBox="0 0 300.000000 300.000000"
 preserveAspectRatio="xMidYMid meet">
<metadata>
Created by potrace 1.10, written by Peter Selinger 2001-2011
</metadata>
<g transform="translate(0.000000,300.000000) scale(0.100000,-0.100000)"
fill="#000000" stroke="none">
<path d="M1396 2381 c-12 -13 -27 -97 -55 -303 -35 -267 -40 -288 -69 -340
-24 -41 -35 -77 -42 -134 -6 -42 -17 -105 -26 -138 -20 -75 -91 -229 -134
-291 l-32 -47 -19 21 c-11 12 -27 21 -37 21 -30 0 -336 -132 -354 -152 -16
-18 -18 -43 -18 -197 0 -144 3 -181 16 -199 l15 -22 348 0 c394 0 360 -8 400
88 21 50 21 55 6 78 -8 13 -20 24 -26 24 -12 0 49 91 70 104 8 5 25 20 38 34
l23 25 23 -25 c13 -14 30 -29 38 -34 21 -13 82 -104 70 -104 -6 0 -18 -11 -26
-24 -15 -23 -15 -28 6 -78 40 -96 6 -88 400 -88 l348 0 15 22 c13 18 16 55 16
199 0 154 -2 179 -17 197 -19 20 -325 152 -355 152 -10 0 -26 -10 -37 -21
l-20 -21 -34 53 c-84 132 -139 281 -156 421 -7 57 -17 91 -41 134 -31 54 -35
72 -71 341 -28 211 -42 290 -54 303 -24 27 -185 27 -209 1z m69 -710 l0 -671
-51 -48 c-27 -26 -63 -68 -80 -94 -16 -27 -35 -48 -42 -48 -27 0 -116 54 -156
94 -22 24 -52 66 -65 94 l-24 52 20 23 c39 42 117 171 148 246 40 97 62 177
73 272 7 52 17 88 35 115 37 57 42 84 77 364 36 286 35 283 53 277 9 -3 12
-147 12 -676z m136 398 c39 -300 41 -307 76 -361 17 -25 28 -61 34 -112 21
-166 87 -335 185 -472 l56 -78 -24 -49 c-12 -28 -42 -69 -64 -93 -40 -41 -129
-94 -157 -94 -7 0 -28 25 -47 56 -18 30 -49 67 -67 81 -66 50 -63 16 -63 736
0 359 3 657 7 661 20 20 31 -25 64 -275z m-617 -1000 c24 -148 177 -301 325
-325 l41 -7 -22 -39 -23 -40 -309 1 c-170 0 -313 4 -318 9 -5 5 -7 78 -6 162
l3 153 145 63 c80 34 148 63 151 63 4 1 9 -18 13 -40z m1196 -23 l145 -62 3
-154 c1 -84 -1 -157 -6 -162 -7 -7 -425 -12 -619 -8 -7 0 -22 18 -32 39 l-20
39 45 7 c143 21 298 177 320 321 3 24 9 44 13 43 3 0 71 -29 151 -63z"/>
</g>
</svg>
